<svg xmlns="http://www.w3.org/2000/svg" xmlns:xlink="http://www.w3.org/1999/xlink" viewBox="0 0 47.98 29.99"><defs><clipPath id="clip-path" transform="translate(0 0)"><rect width="47.98" height="29.99" style="fill:none"/></clipPath></defs><title>catalogue</title><g id="Layer_2" data-name="Layer 2"><g id="Layer_1-2" data-name="Layer 1"><path d="M0,30H48V0H0Zm46.48-1.5H1.5V1.5h45Z" transform="translate(0 0)" style="fill:#231f20"/><polygon points="35.24 16.49 41.24 16.49 41.24 13.49 35.24 13.49 35.24 10.5 42.74 10.5 42.74 7.5 32.24 7.5 32.24 22.49 35.24 22.49 35.24 16.49" style="fill:#231f20;fill-rule:evenodd"/><polygon points="29.24 19.49 21.74 19.49 21.74 16.49 28.49 16.49 28.49 13.49 21.74 13.49 21.74 10.5 29.24 10.5 29.24 7.5 18.74 7.5 18.74 22.49 29.24 22.49 29.24 19.49" style="fill:#231f20;fill-rule:evenodd"/><g style="clip-path:url(#clip-path)"><path d="M16.45,22.49a.71.71,0,0,1-.71-.71V18.58a4.44,4.44,0,0,0-1.23-3.06,4.81,4.81,0,0,0-3.58-8H5.25v15h3V17.11h3.21a1.51,1.51,0,0,1,1.29,1.47v3.92Zm-5.51-8.38H8.25V10.5h2.69a1.81,1.81,0,1,1,0,3.61" transform="translate(0 0)" style="fill:#231f20"/></g></g></g></svg>