<svg xmlns="http://www.w3.org/2000/svg" xmlns:xlink="http://www.w3.org/1999/xlink" viewBox="0 0 63.85 47.01"><defs><clipPath id="clip-path"><rect width="63.85" height="47.01" style="fill:none"/></clipPath></defs><title>instruction</title><g id="Layer_2" data-name="Layer 2"><g id="Layer_1-2" data-name="Layer 1"><g style="clip-path:url(#clip-path)"><path d="M30.93,3A11.5,11.5,0,0,0,19.19,4.36,23.06,23.06,0,0,1,2,6.35V44.12a21.08,21.08,0,0,0,18.13-2.88,13.67,13.67,0,0,1,10.8-.56ZM41.15,21v2h3.24V34H41.15v2h14V34H51.88V21H41.15m7-10a3.74,3.74,0,1,0,3.74,3.74A3.74,3.74,0,0,0,48.13,11M44.66,4.36A11.5,11.5,0,0,0,32.92,3V40.68a13.67,13.67,0,0,1,10.8.56,21.07,21.07,0,0,0,18.13,2.88V6.35a23.06,23.06,0,0,1-17.19-2m19.19-.8v42A23.07,23.07,0,0,1,42.63,43a11.49,11.49,0,0,0-10.74.4,11.5,11.5,0,0,0-12.74.82A23.06,23.06,0,0,1,0,45.55v-42A21.07,21.07,0,0,0,20.17,1.41a13.49,13.49,0,0,1,11.76-.12,13.49,13.49,0,0,1,11.76.12A21.07,21.07,0,0,0,63.85,3.56" style="fill:#231f20;fill-rule:evenodd"/></g></g></g></svg>