<svg xmlns="http://www.w3.org/2000/svg" xmlns:xlink="http://www.w3.org/1999/xlink" viewBox="0 0 51.19 31.99"><defs><clipPath id="clip-path"><rect x="0.05" width="51.12" height="31.99" style="fill:none"/></clipPath></defs><title>lot</title><g id="Layer_2" data-name="Layer 2"><g id="Layer_1-2" data-name="Layer 1"><g style="clip-path:url(#clip-path)"><path d="M10.4,20.8V8H7.2V24h9.6V20.8H10.4m15.2-9.6a3.2,3.2,0,0,0-3.2,3.2v3.2a3.2,3.2,0,1,0,6.4,0V14.4a3.19,3.19,0,0,0-3.2-3.2m0-3.2a6.4,6.4,0,0,0-6.4,6.4v3.2A6.4,6.4,0,1,0,32,17.6V14.4A6.4,6.4,0,0,0,25.6,8m8.8,0v3.2h4V24h3.2V11.2h4V8H34.39M1.6,30.39h48V1.6H1.6ZM51.19,32H0V0H51.19Z" style="fill:#231f20;fill-rule:evenodd"/></g></g></g></svg>